<svg width="41" height="47" viewBox="0 0 41 47" fill="none" xmlns="http://www.w3.org/2000/svg">
<g clip-path="url(#clip0_2105_7177)">
<path d="M20.5669 22.0136L25.3229 19.2954L6.00056 8.31152L0 11.7279V35.2425L4.75795 37.9574L4.73713 14.4796L5.97754 13.7202L6.00083 13.7334L20.5669 22.0136Z" fill="#76BE50"/>
<path d="M27.8007 17.8788L32.5567 15.1606L13.2344 4.17676L8.4784 6.895L27.8007 17.8788Z" fill="#76BE50"/>
<path d="M20.5527 47.0005L41.1582 35.2427V29.8131L20.5526 41.5942L19.3711 40.9193L19.371 40.8938L19.2873 24.2296L14.5293 21.5146L14.5486 43.5441L20.5527 47.0005Z" fill="#76BE50"/>
<path d="M7.31229 39.4142L12.0702 42.1289L12.0508 20.0998L7.29297 17.3848L7.31229 39.4142Z" fill="#76BE50"/>
<path d="M21.8635 24.2425V29.6722L41.1578 18.6405V11.7421L20.543 0L15.7871 2.71825L36.3994 14.4355V15.9313L21.8635 24.2425Z" fill="#76BE50"/>
<path d="M21.8633 32.5005V37.9301L41.1576 26.8984V21.4688L21.8633 32.5005Z" fill="#76BE50"/>
</g>
<defs>
<clipPath id="clip0_2105_7177">
<rect width="41" height="47" fill="white"/>
</clipPath>
</defs>
</svg>
