<svg width="138" height="47" viewBox="0 0 138 47" fill="none" xmlns="http://www.w3.org/2000/svg">
<g clip-path="url(#clip0_2025_7197)">
<path d="M49.1699 32.1497V16.416H59.9223V18.9334H51.9673V23.2264H58.8988V25.7438H51.9673V32.1497H49.1699Z" fill="#76BE50"/>
<path d="M71.882 29.8563C75.0433 29.8563 77.2494 27.3838 77.2494 24.327V24.2821C77.2494 21.2252 75.0206 18.7078 71.8365 18.7078C68.6752 18.7078 66.4691 21.1803 66.4691 24.2371V24.2821C66.4691 27.3389 68.6979 29.8563 71.882 29.8563ZM71.8365 32.4186C66.9467 32.4186 63.5352 28.7549 63.5352 24.327V24.2821C63.5352 19.8766 66.9922 16.1455 71.882 16.1455C76.7718 16.1455 80.1833 19.8092 80.1833 24.2371V24.2821C80.1833 28.6875 76.7263 32.4186 71.8365 32.4186Z" fill="#76BE50"/>
<path d="M84.2344 32.1497V16.416H87.0318V22.9567H93.8968V16.416H96.6942V32.1497H93.8968V25.5191H87.0318V32.1497H84.2344Z" fill="#76BE50"/>
<path d="M100.746 32.1497V16.416H103.544V29.6323H110.451V32.1497H100.746Z" fill="#76BE50"/>
<path d="M117.299 16.416H114.502V32.1497H117.299V16.416Z" fill="#76BE50"/>
<path d="M129.698 29.8563C132.86 29.8563 135.066 27.3838 135.066 24.327V24.2821C135.066 21.2252 132.837 18.7078 129.653 18.7078C126.492 18.7078 124.285 21.1803 124.285 24.2371V24.2821C124.285 27.3389 126.514 29.8563 129.698 29.8563ZM129.653 32.4186C124.763 32.4186 121.352 28.7549 121.352 24.327V24.2821C121.352 19.8766 124.809 16.1455 129.698 16.1455C134.588 16.1455 138 19.8092 138 24.2371V24.2821C138 28.6875 134.543 32.4186 129.653 32.4186Z" fill="#76BE50"/>
<path d="M20.5669 22.0136L25.3229 19.2954L6.00056 8.31152L0 11.7279V35.2425L4.75795 37.9574L4.73713 14.4796L5.97754 13.7202L6.00083 13.7334L20.5669 22.0136Z" fill="#76BE50"/>
<path d="M27.8008 17.8788L32.5568 15.1606L13.2345 4.17676L8.47852 6.895L27.8008 17.8788Z" fill="#76BE50"/>
<path d="M20.5527 47.0005L41.1582 35.2427V29.8131L20.5526 41.5942L19.3711 40.9193L19.371 40.8938L19.2873 24.2296L14.5293 21.5146L14.5486 43.5441L20.5527 47.0005Z" fill="#76BE50"/>
<path d="M7.31229 39.4142L12.0702 42.1289L12.0508 20.0998L7.29297 17.3848L7.31229 39.4142Z" fill="#76BE50"/>
<path d="M21.8635 24.2425V29.6722L41.1578 18.6405V11.7421L20.543 0L15.7871 2.71825L36.3994 14.4355V15.9313L21.8635 24.2425Z" fill="#76BE50"/>
<path d="M21.8633 32.5005V37.9301L41.1576 26.8984V21.4688L21.8633 32.5005Z" fill="#76BE50"/>
</g>
<defs>
<clipPath id="clip0_2025_7197">
<rect width="138" height="47" fill="white"/>
</clipPath>
</defs>
</svg>
